<?xml version="1.0" standalone="no"?>
<!DOCTYPE svg PUBLIC "-//W3C//DTD SVG 20010904//EN"
 "http://www.w3.org/TR/2001/REC-SVG-20010904/DTD/svg10.dtd">
<svg version="1.0" xmlns="http://www.w3.org/2000/svg"
 width="266.000000pt" height="266.000000pt" viewBox="0 0 266.000000 266.000000"
 preserveAspectRatio="xMidYMid meet">
<metadata>
Created by potrace 1.11, written by Peter Selinger 2001-2013
</metadata>
<g transform="translate(0.000000,266.000000) scale(0.100000,-0.100000)"
fill="#000000" stroke="none">
<path d="M287 2269 c-99 -23 -208 -115 -254 -214 l-28 -60 0 -665 0 -665 27
-57 c37 -80 108 -152 187 -191 l66 -32 1040 0 1040 0 57 23 c81 33 160 108
200 190 l33 67 0 666 0 665 -34 67 c-41 80 -110 148 -189 185 l-57 27 -1025 2
c-571 0 -1042 -3 -1063 -8z"/>
</g>
</svg>
